<?xml version="1.0" encoding="iso-8859-1"?>
<svg fill="#000000" height="800px" width="800px" version="1.1" id="Capa_1" xmlns="http://www.w3.org/2000/svg" xmlns:xlink="http://www.w3.org/1999/xlink" 
    viewBox="0 0 60 60" xml:space="preserve">
    <rect width="100%" height="100%" fill="#1DB954" rx="10" ry="10"/> <!-- Green background with rounded corners -->
    <g>
        <!-- Play button (black triangle) -->
        <path fill="#000000" d="M45.563,29.174l-22-15c-0.307-0.208-0.703-0.231-1.031-0.058C22.205,14.289,22,14.629,22,15v30
            c0,0.371,0.205,0.711,0.533,0.884C22.679,45.962,22.84,46,23,46c0.197,0,0.394-0.059,0.563-0.174l22-15
            C45.836,30.64,46,30.331,46,30S45.836,29.36,45.563,29.174z M24,43.107V16.893L43.225,30L24,43.107z"/>
        <!-- Outer circle (green border) -->
        <path fill="none" stroke="#000000" stroke-width="2" d="M30,0C13.458,0,0,13.458,0,30s13.458,30,30,30s30-13.458,30-30S46.542,0,30,0z"/>
    </g>
</svg>















